<?xml version="1.0" encoding="UTF-8"?>
<svg id="Layer_4" data-name="Layer 4" xmlns="http://www.w3.org/2000/svg" version="1.1" viewBox="0 0 662 274.6">
  <defs>
    <style>
      .cls-1 {
        fill: #9e0059;
      }

      .cls-1, .cls-2 {
        stroke-width: 0px;
      }

      .cls-2 {
        fill: #fff;
      }
    </style>
  </defs>
  <g>
    <rect class="cls-2" x="38.1" y="38.1" width="198.4" height="198.4"/>
    <g>
      <rect class="cls-1" x="198.4" y="118.2" width="38.1" height="38.1"/>
      <rect class="cls-1" x="198.4" y="78.2" width="38.1" height="38.1"/>
      <rect class="cls-1" x="158.3" y="198.4" width="38.1" height="38.1"/>
      <rect class="cls-1" x="198.4" y="158.3" width="38.1" height="38.1"/>
      <rect class="cls-1" x="198.4" y="38.1" width="38.1" height="38.1"/>
      <rect class="cls-1" x="118.3" y="158.3" width="38.1" height="38.1"/>
      <rect class="cls-1" x="118.3" y="198.4" width="38.1" height="38.1"/>
      <rect class="cls-1" x="158.3" y="118.2" width="38.1" height="38.1"/>
      <rect class="cls-1" x="38.1" y="38.1" width="38.1" height="38.1"/>
      <rect class="cls-1" x="118.3" y="118.2" width="38.1" height="38.1"/>
      <rect class="cls-2" x="78.2" y="118.2" width="38.1" height="38.1"/>
      <rect class="cls-2" x="158.3" y="38.1" width="38.1" height="38.1"/>
      <rect class="cls-1" x="118.3" y="38.1" width="38.1" height="38.1"/>
      <rect class="cls-1" x="158.3" y="158.3" width="38.1" height="38.1"/>
      <rect class="cls-1" x="38.1" y="118.2" width="38.1" height="38.1"/>
      <rect class="cls-1" x="78.2" y="78.2" width="38.1" height="38.1"/>
      <rect class="cls-2" x="38.1" y="78.2" width="38.1" height="38.1"/>
      <rect class="cls-1" x="38.1" y="158.3" width="38.1" height="38.1"/>
      <rect class="cls-1" x="38.1" y="198.4" width="38.1" height="38.1"/>
      <rect class="cls-1" x="78.2" y="158.3" width="38.1" height="38.1"/>
      <rect class="cls-1" x="78.2" y="198.4" width="38.1" height="38.1"/>
      <rect class="cls-1" x="78.2" y="38.1" width="38.1" height="38.1"/>
      <rect class="cls-1" x="118.3" y="78.2" width="38.1" height="38.1"/>
      <rect class="cls-1" x="198.4" y="198.4" width="38.1" height="38.1"/>
      <rect class="cls-1" x="158.3" y="78.2" width="38.1" height="38.1"/>
    </g>
  </g>
  <g>
    <g>
      <path class="cls-1" d="M277.7,166.3h-3.1v-58.1h31.1v2.9h-28v24.4h25v2.9h-25v27.9Z"/>
      <path class="cls-1" d="M360.2,158.4c-5.5,5.8-12.3,8.8-20.3,8.8s-14.8-2.9-20.3-8.8c-5.5-5.9-8.3-12.9-8.3-21.1s2.8-15.2,8.3-21.1c5.6-5.8,12.4-8.8,20.3-8.8s14.8,2.9,20.3,8.8c5.6,5.8,8.4,12.9,8.4,21.1s-2.8,15.3-8.4,21.1ZM321.8,156.4c5,5.3,11,7.9,18.2,7.9s13.2-2.6,18.2-7.9c5-5.3,7.5-11.6,7.5-19.1s-2.5-13.9-7.5-19.1c-5-5.3-11-7.9-18.2-7.9s-13.2,2.6-18.2,7.9c-5,5.2-7.5,11.6-7.5,19.1s2.5,13.9,7.5,19.1Z"/>
      <path class="cls-1" d="M402.1,141l16,25.3h-3.9l-15.6-25c-.3,0-.9,0-1.9,0h-13.1v24.9h-3.4v-58.1h17.6c6.5,0,11.4,1.6,14.8,4.9,3.4,3.2,5.2,7.1,5.2,11.7s-1.4,7.3-4.1,10.4c-2.6,3-6.5,4.9-11.7,5.8ZM383.7,111.1v27.4h13.3c5.4,0,9.7-1.3,12.8-3.8,3.1-2.5,4.7-5.8,4.7-10s-1.5-7.4-4.5-9.9c-3-2.5-7-3.7-12.1-3.7h-14.2Z"/>
    </g>
    <g>
      <path class="cls-1" d="M296.3,96.2h-21.7v-58.1h22.1c8.5,0,15.2,2.6,20,7.9,4.8,5.2,7.3,12.4,7.3,21.3s-2.5,16-7.4,21.2c-4.9,5.2-11.7,7.8-20.3,7.8ZM285.9,49.3v35.8h10.9c4.8,0,8.6-1.7,11.3-5.1,2.7-3.4,4.1-7.7,4.1-12.9s-1.4-9.3-4.1-12.7c-2.7-3.4-6.5-5.1-11.3-5.1h-10.9Z"/>
      <path class="cls-1" d="M377.3,96.2h-13.9l-3.5-9.7h-21.3l-3.7,9.7h-13.8l23.3-58.1h10l23,58.1ZM356.4,76.1l-7.1-18.7-7.3,18.7h14.4Z"/>
      <path class="cls-1" d="M386.7,96.2v-46.9h-17.1v-11.3h46.3v11.3h-17.1v46.9h-12.1Z"/>
      <path class="cls-1" d="M464,96.2h-13.9l-3.5-9.7h-21.3l-3.7,9.7h-13.8l23.3-58.1h10l23,58.1ZM443.1,76.1l-7.1-18.7-7.3,18.7h14.4Z"/>
    </g>
    <g>
      <path class="cls-1" d="M313.5,236.4h-38.9v-58h11.7v46.9h27.2v11.1Z"/>
      <path class="cls-1" d="M349.3,237.3c-8.5,0-15.5-2.8-21.1-8.5-5.7-5.7-8.5-12.8-8.5-21.1s2.9-15.5,8.6-21.4c5.8-5.8,12.8-8.8,21.1-8.8s15.3,2.9,21,8.8c5.8,5.8,8.6,12.9,8.6,21.2s-2.9,15.3-8.6,21.1c-5.7,5.8-12.7,8.7-21.1,8.7ZM367.2,207.5c0-5.3-1.7-9.7-5.2-13.2-3.5-3.5-7.7-5.3-12.6-5.3s-9.1,1.8-12.6,5.3c-3.4,3.5-5.2,7.9-5.2,13.2s1.7,9.6,5.1,13.1c3.4,3.5,7.7,5.2,12.7,5.2s9.3-1.7,12.7-5.2c3.4-3.5,5.1-7.9,5.1-13.1Z"/>
      <path class="cls-1" d="M425.6,214.3v-36h11.7v58.1h-10.4l-24.1-35.6v35.6h-11.7v-58.1h9.9l24.6,36Z"/>
      <path class="cls-1" d="M470.7,236.5h-21.7v-58.1h22.1c8.5,0,15.2,2.6,20,7.9,4.8,5.2,7.3,12.4,7.3,21.3s-2.5,16-7.4,21.2c-4.9,5.2-11.7,7.8-20.3,7.8ZM460.4,189.5v35.8h10.9c4.8,0,8.6-1.7,11.3-5.1,2.7-3.4,4.1-7.7,4.1-12.9s-1.4-9.3-4.1-12.7c-2.7-3.4-6.5-5.1-11.3-5.1h-10.9Z"/>
      <path class="cls-1" d="M537.4,237.3c-8.5,0-15.5-2.8-21.1-8.5-5.7-5.7-8.5-12.8-8.5-21.1s2.9-15.5,8.6-21.4c5.8-5.8,12.8-8.8,21.1-8.8s15.3,2.9,21,8.8c5.8,5.8,8.6,12.9,8.6,21.2s-2.9,15.3-8.6,21.1c-5.7,5.8-12.7,8.7-21.1,8.7ZM555.3,207.5c0-5.3-1.7-9.7-5.2-13.2-3.5-3.5-7.7-5.3-12.6-5.3s-9.1,1.8-12.6,5.3c-3.4,3.5-5.2,7.9-5.2,13.2s1.7,9.6,5.1,13.1c3.4,3.5,7.7,5.2,12.7,5.2s9.3-1.7,12.7-5.2c3.4-3.5,5.1-7.9,5.1-13.1Z"/>
      <path class="cls-1" d="M612.2,214.3v-36h11.7v58.1h-10.4l-24.1-35.6v35.6h-11.7v-58.1h9.9l24.6,36Z"/>
    </g>
  </g>
</svg>